<?xml version="1.0" encoding="utf-8"?>
<svg version="1.1" id="Ebene_1" xmlns="http://www.w3.org/2000/svg" xmlns:xlink="http://www.w3.org/1999/xlink" x="0px" y="0px"
	 viewBox="0 0 517 517" style="enable-background:new 0 0 517 517;" xml:space="preserve">
<style type="text/css">
	.tmm-ic-y{fill:#FFD714;}
	.tmm-ic-g{fill:#00A05B;}
	.tmm-ic-r{fill:#D20729;}
</style>
<g class="tmm-icon-coin" id="coin1">
	<path class="tmm-ic-y" d="M73.6362,94.3870468l121.9557953,35.4949112l24.7720032-3.2720108L105.3820038,60.7224464
		C100.2959976,63.9049454,82.7446976,75.849144,73.6362,94.3870468z"/>
	<path d="M93.4125977,91.7913437c-2.1553955-1.2033005-2.9301987-3.928299-1.7282944-6.0864944
		c1.2017975-2.1581039,3.9233932-2.9337997,6.0788956-1.7304001c2.1652985,1.2033005,2.9298019,3.928299,1.728302,6.0864944
		c-0.8144989,1.4719009-2.334198,2.2973022-3.9036026,2.2973022C94.8528976,92.3582458,94.1079025,92.179245,93.4125977,91.7913437z
		 M104.4380035,78.0470428c-1.2320023-2.1381989-0.5070038-4.8731995,1.6289978-6.1063995
		c2.1360016-1.2430954,4.8669968-0.5071945,6.1090012,1.6310043c1.2309952,2.138298,0.5059967,4.8731995-1.6290054,6.1164017
		c-0.7049942,0.4076996-1.4799957,0.5966949-2.2350006,0.5966949
		C106.762001,80.2847443,105.262001,79.4891434,104.4380035,78.0470428z"/>
	<path d="M230.9830017,125.8239441L106.8219986,54.6757469c-0.9039993-0.5172005-2.0169983-0.5270996-2.9300003-0.0199013
		c-1.072998,0.5967026-26.3621979,14.9477005-37.1492004,40.4672012c-0.1688995,0.3879013-0.2483978,0.8154984-0.2383957,1.2332001
		v0.0398026c0.0098953,0.2187958,0.0495987,0.4375992,0.0992966,0.6464005l5.4929047,36.4995117
		c0.2085953,1.6599884,0.4468994,3.2319946,2.8009949,3.9179993l116.7014008,34.1119995
		c0.2579956,0.0699921,0.5160065,0.1100006,0.7749939,0.1100006c0.1190033,0,0.2380066,0,0.3670044-0.0200043l33.4940033-6.1070099
		c1.1820068-0.1589966,2.1349945-1.0539856,2.3739929-2.2269897c0.2280121-1.173996,3.8540039-34.5400085,3.8540039-34.5400085
		h-0.0200043c0.1490021-1.1840057-0.4169922-2.3570023-1.469986-2.9540024L230.9830017,125.8239441z M105.3820038,60.7224464
		l114.9819946,65.8874969l-24.7720032,3.2720108L73.6362,94.387146
		C82.7347031,75.8392487,100.2860031,63.9049454,105.3820038,60.7224464z"/>
</g>
<g class="tmm-icon-coin" id="coin2">
	<path class="tmm-ic-y" d="M24.9155006,181.1389618c-1.8276005,7.9669952-7.5291004,36.3199921-5.5425014,72.9489899
		c2.1057014,38.9449768,13.5781994,95.3649902,55.8921967,144.9619751l57.8888092-92.2619934l-6.5960083-18.3590088
		c-0.3570023-0.9949951-0.1579971-2.098999,0.5070038-2.9039917l58.7929993-71.3279724l6.9429932-30.303009l-167.895401-2.7449951
		L24.9155006,181.1389618z"/>
	<path d="M42.5563011,201.5369568c-0.2980003,0-0.5860023-0.0299988-0.8740997-0.0890045
		c-0.288002-0.0500031-0.5661011-0.1399994-0.834301-0.2489929c-0.2780991-0.1090088-0.5363998-0.2490082-0.7747993-0.4179993
		c-0.2483025-0.1590118-0.4768028-0.3480072-0.6753998-0.5570068c-0.8344002-0.8249969-1.311203-1.9790039-1.311203-3.1620026
		c0-1.1839905,0.4768028-2.3269958,1.311203-3.1629944c0.198597-0.2089996,0.4270973-0.3880005,0.6753998-0.5570068
		c0.2383995-0.1589966,0.4967003-0.2979889,0.7747993-0.4069977c0.2681999-0.1199951,0.546299-0.1990051,0.834301-0.2590027
		c0.5760994-0.118988,1.1721001-0.118988,1.7481995,0c0.2780991,0.0599976,0.5662003,0.1390076,0.8344002,0.2590027
		c0.2681999,0.1090088,0.5263977,0.2480011,0.7647972,0.4069977c0.2483025,0.1690063,0.4768028,0.3480072,0.6854019,0.5570068
		c0.834301,0.8359985,1.3111,1.9889984,1.3111,3.1629944c0,0.2880096-0.0298004,0.5870056-0.0894012,0.875
		c-0.059597,0.2880096-0.1489983,0.5670013-0.2581978,0.8350067c-0.1093025,0.2789917-0.2483025,0.5370026-0.4073029,0.776001
		c-0.1687965,0.2489929-0.347599,0.4779968-0.5561981,0.6759949c-0.2085991,0.2089996-0.4370995,0.397995-0.6854019,0.5570068
		c-0.2383995,0.1689911-0.4965973,0.3089905-0.7647972,0.4179993c-0.2681999,0.1089935-0.5563011,0.1989899-0.8344002,0.2489929
		C43.1423988,201.506958,42.8443985,201.5369568,42.5563011,201.5369568z"/>
	<path d="M62.8591995,349.0949402c-1.2019005-2.1679993-0.4171982-4.8829956,1.7381973-6.0870056
		c2.1654053-1.2030029,4.887001-0.4169922,6.0789032,1.7409973c1.2018967,2.1679993,0.4171982,4.8930054-1.7381973,6.0859985
		c-0.6854019,0.3780212-1.4304047,0.5670166-2.1654053,0.5670166
		C65.2033005,351.401947,63.6736984,350.566925,62.8591995,349.0949402z M55.1214981,333.3419495
		c-0.9833984-2.2680054,0.0596008-4.9030151,2.3243027-5.8880005c2.2645988-0.9850159,4.8969002,0.0599976,5.8801994,2.3269958
		c0.9834023,2.2680054-0.0596008,4.9029846-2.3242989,5.8880005c-0.5761032,0.2479858-1.182003,0.367981-1.7779999,0.367981
		C57.4953995,336.0369263,55.8564987,335.0319519,55.1214981,333.3419495z M48.8736992,316.9919434
		c-0.7747993-2.3479919,0.486702-4.8840027,2.8309021-5.6589966c2.334198-0.7860107,4.8670998,0.4769897,5.6517982,2.8240051
		c0.7847023,2.3469849-0.4866982,4.8829956-2.8209991,5.6589966c-0.4766998,0.1589966-0.9534988,0.2389832-1.4203987,0.2389832
		C51.2476997,320.0549316,49.4995003,318.8709412,48.8736992,316.9919434z M44.0065994,300.2139282
		c-0.5960007-2.3970032,0.8642006-4.8239746,3.2579994-5.4199829c2.4037018-0.5970154,4.827301,0.8549805,5.4233017,3.2519836
		c0.5960007,2.4070129-0.8641014,4.8330078-3.2579994,5.4300232c-0.3675003,0.0889893-0.7251015,0.1289978-1.0825996,0.1289978
		C46.3408012,303.60495,44.5131989,302.2529297,44.0065994,300.2139282z M40.401001,283.1579285
		c-0.417202-2.4369812,1.2017975-4.7539978,3.6353989-5.1819763c2.4235992-0.427002,4.7479019,1.1940002,5.1749992,3.6299744
		c0.4271011,2.4370117-1.2019005,4.7539978-3.6254997,5.1820068c-0.2681999,0.0500183-0.5263977,0.0690002-0.7846985,0.0690002
		C42.6755981,286.8569336,40.7883987,285.3259277,40.401001,283.1579285z M37.9476013,265.9229431
		c-0.2681999-2.4570007,1.4997978-4.6750183,3.9531975-4.9429932c2.4533997-0.2690125,4.6585007,1.5019836,4.9367027,3.9579773
		c0.2681999,2.4470215-1.4999008,4.6640015-3.9533005,4.9330139c-0.1688995,0.019989-0.3376999,0.0299988-0.4967003,0.0299988
		C40.1427002,269.9009399,38.2057991,268.2099304,37.9476013,265.9229431z M36.5470009,248.5879517
		c-0.1291008-2.4660034,1.7580986-4.5749969,4.2313995-4.7039948c2.463398-0.1289978,4.5690994,1.7700043,4.6982994,4.2369995
		c0.1192017,2.4759979-1.7681007,4.5749969-4.2313995,4.7039948c-0.0795021,0-0.1590004,0-0.2383995,0
		c-2.3640022,0-4.3407021-1.8600006-4.4598999-4.246994V248.5879517z M40.5797997,235.7089539
		c-2.4733009,0-4.469799-2.0090027-4.4598999-4.4850006c0.0098991-2.477005,2.0163994-4.4759979,4.479702-4.4660034
		c2.4732971,0,4.469799,2.0189972,4.4598999,4.4860077c0,2.4759979-2.0065002,4.4649963-4.4698029,4.4649963H40.5797997z
		 M40.8380013,218.5929565c-2.4633026-0.1390076-4.3506012-2.2570038-4.2016029-4.723999
		c0.1391029-2.4660034,2.2448006-4.3560028,4.7082024-4.2170105c2.4733009,0.1400146,4.3506012,2.2580109,4.2114983,4.7240143
		c-0.1291008,2.3769989-2.1056976,4.2169952-4.4598007,4.2169952H40.8380013z"/>
	<path d="M75.8314972,365.921936c-1.1819992,0-2.334198-0.4769897-3.158699-1.3129883
		c-0.2085953-0.2080078-0.3973007-0.4370117-0.5561981-0.6860046c-0.1688995-0.2380066-0.3078995-0.4970093-0.4171982-0.7659912
		c-0.1091995-0.2680054-0.1986008-0.5559998-0.2482986-0.835022c-0.0596008-0.2879944-0.0894012-0.5870056-0.0894012-0.875
		c0-0.2890015,0.0298004-0.5870056,0.0894012-0.875c0.0496979-0.2890015,0.1390991-0.5669861,0.2482986-0.8459778
		c0.1092987-0.2680054,0.2482986-0.5270081,0.4171982-0.7650146c0.1588974-0.2489929,0.3476028-0.4779968,0.5561981-0.6870117
		c1.0331039-1.0339966,2.5726013-1.5109863,4.0327988-1.2229919c0.2781067,0.0599976,0.5662003,0.1490173,0.8343048,0.2590027
		c0.2681961,0.1090088,0.5264969,0.2480164,0.7747955,0.4070129c0.2384033,0.1689758,0.4668045,0.3580017,0.6753998,0.5569763
		c0.2086029,0.2090149,0.3973007,0.4380188,0.5563049,0.6870117c0.1588974,0.2380066,0.2979965,0.4970093,0.407196,0.7650146
		c0.1092987,0.2789917,0.1987,0.5569763,0.2583008,0.8459778c0.0596008,0.2879944,0.0894012,0.5769958,0.0894012,0.875
		s-0.0298004,0.5870056-0.0894012,0.875c-0.0596008,0.2790222-0.1490021,0.5670166-0.2583008,0.835022
		c-0.1091995,0.2689819-0.2482986,0.5279846-0.407196,0.7659912c-0.1590042,0.2489929-0.347702,0.4779968-0.5563049,0.6860046
		c-0.2085953,0.2089844-0.4369965,0.3880005-0.6753998,0.5569763c-0.2482986,0.1600037-0.5065994,0.2990112-0.7747955,0.40802
		c-0.2681046,0.1099854-0.5561981,0.1990051-0.8343048,0.2590027
		C76.4175034,365.8919373,76.1194992,365.921936,75.8314972,365.921936z"/>
	<path d="M231.2709961,207.8419495c-0.5269928-0.6660004-32.3119965-29.4869995-33.2059937-29.496994h-0.0890045
		c-0.4169922-0.2189941-0.8939972-0.3580017-1.3809967-0.3679962l-173.9541016-2.8440094
		c-1.3806-0.0599976-2.5725994,0.8850098-2.9302006,2.2070007c-0.3574982,1.3130035-8.6514988,32.7600098-6.2874994,76.8570099
		c2.1753006,40.7459717,14.3529997,100.1589661,60.0144005,151.8149719
		c0.3476028,0.3970032,0.8045044,0.6759949,1.2912979,0.8349915v0.0300293l47.5581055,12.868988
		c1.112999,0.2680054,1.7979965,0.2189941,2.6029968-0.1589966c0.387001-0.1790161,0.9329987-0.8850098,1.3010025-1.4420166
		l55.0880051-91.2079773c0.4569855-0.7360229,0.5559998-1.6410217,0.2679901-2.4570007l-6.1679993-17.1650085l48.3430023-66.1559906
		c0.2779999-0.3379974,0.477005-0.7359924,0.576004-1.1640015l7.4989929-29.776001
		C231.9859924,209.3839569,231.7969971,208.5189514,231.2709961,207.8419495z M185.878006,214.1879578l-58.7930069,71.3269958
		c-0.6660004,0.8149719-0.8639984,1.9189758-0.5069962,2.9039917l6.595993,18.3590088l-57.8888931,92.2619934
		c-0.4172058-0.4869995-0.8046036-0.9750061-1.2218018-1.4620056
		C32.7526016,348.348938,21.4689007,292.6559448,19.3829994,254.0879517
		c-1.986599-36.6380005,3.7147999-64.9920044,5.5425014-72.9489899l134.6394958,2.197998l33.2659912,0.5469971
		l-6.9440002,30.3040009H185.878006z"/>
</g>
<g class="tmm-icon-coin" id="coin7">
	<path class="tmm-ic-y" d="M390.4349976,95.570549l-6.2779846,8.3743973l77.446991-15.4057007
		c-0.3680115-4.8234024-1.8569946-15.7532959-7.9070129-22.6850967L390.4349976,95.570549z"/>
	<path d="M467.6830139,90.9559479c0-0.8255005-0.1290283-20.4176025-11.2840271-30.8899994
		c-0.8939819-0.8354034-2.1949768-1.0442009-3.3079834-0.5271034l-65.8640137,30.9397011
		c-0.4369812,0.2089005-0.8249817,0.5171967-1.1229858,0.9150009l-11.3930054,15.206398
		c-0.2380066,0.3180008-0.3970032,0.6860046-0.4960022,1.0540009v0.0500031
		c-0.0599976,0.2089996-0.0799866,0.4179993-0.0899963,0.635994l-2.9899902,23.1130142
		c-0.178009,1.371994-0.4660034,2.4960022,0.2389832,3.3909912c0.7149963,1.2440033,2.3739929,1.0940094,2.553009,1.0550079
		l81.5279846-14.8190079c1.3120117-0.2580032,2.2150269-0.7160034,2.9900208-2.8840027
		c0.2590027-0.7360001,9.0589905-26.2155991,9.0589905-26.2155991c0.118988-0.3182983,0.1790161-0.6564026,0.1790161-1.0145035
		V90.9559479z M390.4349976,95.570549l63.2619934-29.7164001c6.0400085,6.9318008,7.5390015,17.8616943,7.9070129,22.6850967
		l-77.446991,15.4047012L390.4349976,95.570549z"/>
	<path d="M447.9559937,82.2339478c-1.8179932-1.6807022-1.927002-4.5150986-0.2479858-6.3251038
		c1.6789856-1.8199997,4.5090027-1.9293976,6.3169861-0.2486954c1.8179932,1.6808014,1.9169922,4.5151978,0.2480164,6.3251953
		c-0.8840027,0.9548035-2.085022,1.432106-3.2870178,1.432106C449.9030151,83.41745,448.8099976,83.0296478,447.9559937,82.2339478z
		"/>
</g>
<g class="tmm-icon-coin" id="coin6">
	<path class="tmm-ic-y" d="M436.7720032,153.72995c-0.2879944,0.0700073-0.5859985,0.1000061-0.8739929,0.0800018l-72.7390137-4.227005
		l-42.4729919,20.905014l15.197998,52.7299957l72.7080078,39.1149902c0.3179932,0.1690063,0.6059875,0.3970032,0.8450012,0.6759949
		l64.6919861,74.6489868c27.7430115-55.0269775,26.4119873-104.4449768,20.2630005-136.4989777
		c-5.7309875-29.875-16.5579834-50.5410004-20.0050049-56.5780029l-37.6149902,9.1590118V153.72995z"/>
	<path d="M500.1929932,199.756958c-7.0820007-36.678009-21.2460022-59.2740021-21.8519897-60.2080078
		c-0.6860046-1.0749969-1.9869995-1.6019897-3.2180176-1.3029938l-39.3249817,9.5769958l-73.0760193-4.246994
		c-0.5159912-0.029007-1.0229797,0.0699921-1.4899902,0.298996l-45.4230042,22.3569946
		c-0.4369812,0.2180023-0.7939758,0.5270081-1.0619812,0.8950043l-0.0200195,0.0299988
		c-0.2089844,0.2880096-0.367981,0.6060028-0.46698,0.9539948l-17.6210022,39.2340088
		c-0.9040222,1.5220032-0.95401,2.6060028-0.5760193,3.9290009l10.3800049,51.7249756
		c0.2080078,0.7359924,0.7050171,1.3520203,1.3800049,1.7109985l68.1400146,39.1540222l58.8819885,70.8799744
		c0.5360107,0.6260071,1.3410034,1.3420105,2.5429993,1.382019c1.1619873,0.0099792,2.0660095-0.4179993,2.9299927-1.1340027
		l36.5920105-29.9850159v-0.0189819c0.1789856-0.1990051,0.3580017-0.4179993,0.4869995-0.677002
		c30.6730042-58.2290039,29.321991-110.7499847,22.79599-144.5639954V199.756958z M474.1289978,337.6479492l-64.6919861-74.6490173
		c-0.2390137-0.2689819-0.5169983-0.4969788-0.8450012-0.6759949l-72.7080078-39.1149902l-15.197998-52.7299957
		l42.4729919-20.9049988l72.7390137,4.227005c0.2980042,0.0200043,0.5859985-0.0100098,0.8739929-0.07901l37.6159973-9.1599884
		c3.4360046,6.0370026,14.2730103,26.7030029,20.0039978,56.5780029
		c6.1489868,32.0639954,7.480011,81.4719696-20.2630005,136.4989777V337.6479492z"/>
	<path d="M462.8649902,170.8359528c-0.2879944,0-0.5859985-0.0299988-0.8739929-0.0890045
		c-0.2879944-0.0499878-0.5660095-0.1389923-0.8339844-0.2489929c-0.2680054-0.1190033-0.5270081-0.2480011-0.7750244-0.4179993
		c-0.2379761-0.1589966-0.46698-0.3480072-0.6749878-0.5559998c-0.2090149-0.1990051-0.3980103-0.428009-0.5570068-0.677002
		c-0.1589966-0.2380066-0.2980042-0.5070038-0.4169922-0.7749939c-0.1090088-0.2690125-0.197998-0.5470123-0.2480164-0.8360138
		c-0.0599976-0.2879944-0.0889893-0.5869904-0.0889893-0.875c0-1.173996,0.4760132-2.3269958,1.3110046-3.1629944
		c0.2080078-0.2079926,0.4370117-0.3970032,0.6749878-0.5569916c0.2480164-0.1590118,0.507019-0.2980042,0.7750244-0.4070129
		c0.2679749-0.1199951,0.54599-0.1989899,0.8339844-0.2589874c1.4500122-0.2980042,2.9899902,0.1790009,4.0329895,1.2229919
		c0.8340149,0.8359985,1.3110046,1.9889984,1.3110046,3.1629944c0,0.2880096-0.0299988,0.5870056-0.0889893,0.875
		c-0.0599976,0.2890015-0.1390076,0.5670013-0.2590027,0.8360138c-0.1090088,0.2679901-0.2479858,0.5369873-0.4070129,0.7749939
		c-0.1589966,0.2489929-0.3469849,0.4779968-0.5559998,0.677002
		C465.1900024,170.3589478,464.0369873,170.8359528,462.8649902,170.8359528z"/>
	<path d="M471.9639893,285.9919434c-2.4140015-0.5270081-3.9440002-2.9039917-3.4169922-5.3200073
		c0.5159912-2.4169922,2.8999939-3.9589844,5.3139954-3.4309998c2.4140015,0.5270081,3.9429932,2.9039917,3.4170227,5.3200073
		c-0.4470215,2.098999-2.3050232,3.5310059-4.3610229,3.5310059
		C472.598999,286.0919495,472.2820129,286.0619507,471.9639893,285.9919434z M475.1130066,269.5229492
		c-2.4440002-0.2880249-4.2019958-2.506012-3.9140015-4.9630127c0.2779846-2.4559937,2.5029907-4.2059937,4.9559937-3.928009
		c2.45401,0.2880249,4.2019958,2.5160217,3.9240112,4.9630127c-0.2680054,2.2869873-2.2050171,3.9580078-4.4400024,3.9580078
		C475.4700012,269.552948,475.2909851,269.552948,475.1130066,269.5229492z M476.7120056,252.8349609
		c-2.4640198-0.0700073-4.401001-2.1380005-4.3210144-4.6150055c0.07901-2.4660034,2.1350098-4.4049988,4.598999-4.326004
		c2.4730225,0.0800018,4.4100037,2.1380005,4.3310242,4.6150055c-0.0700073,2.4160004-2.0570068,4.3359985-4.460022,4.3359985
		C476.8110046,252.8449554,476.7609863,252.8449554,476.7120056,252.8349609z M472.2520142,231.8109589
		c-0.1090088-2.4670105,1.7979736-4.5550079,4.2609863-4.6750031c2.4630127-0.1190033,4.5589905,1.7910004,4.6679993,4.2570038
		c0.1199951,2.4759979-1.7869873,4.5649872-4.2510071,4.6839905h-0.2179871
		C474.3479919,236.0769501,472.3609924,234.206955,472.2520142,231.8109589z M470.881012,215.4509583
		c-0.2980042-2.4570007,1.4400024-4.6940002,3.8939819-4.9830017c2.4530029-0.3079987,4.678009,1.4420013,4.9760132,3.8990021
		c0.2980042,2.4459991-1.4400024,4.6839905-3.8940125,4.9819946c-0.178009,0.0200043-0.3670044,0.0299988-0.54599,0.0299988
		C473.0859985,219.378952,471.1589966,217.7179565,470.881012,215.4509583z M468.2690125,199.2399597
		c-0.4869995-2.4170074,1.0820007-4.7840118,3.4960022-5.2710114c2.4239807-0.4869995,4.7779846,1.0740051,5.2739868,3.5010071
		c0.4869995,2.4259949-1.0820007,4.7830048-3.506012,5.2709961c-0.2980042,0.0590057-0.5959778,0.0890045-0.8840027,0.0890045
		C470.5629883,202.8299561,468.7059937,201.3679504,468.2690125,199.2399597z M464.3349915,183.3769531
		c-0.7049866-2.3670044,0.6459961-4.8629913,3.0100098-5.5690002c2.3640137-0.7160034,4.8569946,0.6260071,5.5620117,3.003006
		c0.7059937,2.3669891-0.6350098,4.8539886-2.9990234,5.5699921c-0.427002,0.1289978-0.8639832,0.1890106-1.2919922,0.1890106
		C466.6990051,186.5699615,464.92099,185.3169556,464.3349915,183.3769531z"/>
	<path d="M468.4670105,302.2529297c-1.1719971,0-2.3240051-0.4779968-3.15802-1.3029785
		c-0.1990051-0.2090149-0.3880005-0.4380188-0.5559998-0.6860046c-0.1589966-0.2390137-0.2980042-0.4970093-0.4079895-0.776001
		c-0.1090088-0.2680054-0.197998-0.5469971-0.2579956-0.8349915c-0.0500183-0.2890015-0.07901-0.5770264-0.07901-0.875
		c0-0.2990112,0.0289917-0.5870056,0.07901-0.8760071c0.0599976-0.2780151,0.1489868-0.5670166,0.2579956-0.835022
		c0.1099854-0.2689819,0.2489929-0.5269775,0.4079895-0.776001c0.1679993-0.2379761,0.3569946-0.46698,0.5559998-0.6759949
		c0.8340149-0.8349915,1.9860229-1.3129883,3.15802-1.3129883s2.3349915,0.4779968,3.1689758,1.3129883
		c0.1990051,0.2090149,0.3870239,0.4380188,0.5559998,0.6759949c0.1590271,0.2490234,0.2980042,0.507019,0.4070129,0.776001
		c0.1100159,0.2680054,0.1990051,0.5570068,0.2590027,0.835022c0.0589905,0.2890015,0.0889893,0.5870056,0.0889893,0.8760071
		c0,0.2879944-0.0299988,0.5859985-0.0889893,0.875c-0.0599976,0.2879944-0.1489868,0.5669861-0.2590027,0.8349915
		c-0.1090088,0.2789917-0.2479858,0.5369873-0.4070129,0.776001c-0.1689758,0.2479858-0.3569946,0.4769897-0.5559998,0.6860046
		C470.802002,301.7749329,469.6489868,302.2529297,468.4670105,302.2529297z"/>
</g>
<g id="rose">
	<path class="tmm-ic-g" d="M253.0429993,190.9259491c-1.201004,4.9520111-2.3930054,10.5910034-3.4660034,16.8670044
		c3.576004-2.2079926,8.7510071-4.6349945,15.5650024-5.8679962
		C261.0390015,199.2899475,256.42099,195.6199493,253.0429993,190.9259491z"/>
	<path class="tmm-ic-g" d="M145.1529999,232.0889587c1.6880035-0.1590118,37.6849976-3.381012,72.7079926,6.1559906
		c-10.17099-8.1149902-28.8549957-19.1439972-56.0409851-20.1490021
		c-36.2750092-1.3419952-57.7100067,15.0770111-64.5932083,21.4120026
		c8.3532028,5.2020111,33.3642044,19.1249847,63.0642014,20.2189789c26.9869995,0.9940186,50.8760071-8.8509674,61.5630035-14.09198
		c-35.697998-11.2289886-75.7180023-7.647995-76.1450043-7.6089935c-1.6389923,0.1499939-3.0890045-1.0540009-3.2480011-2.6950073
		c-0.1589966-1.6409912,1.053009-3.0929871,2.6920013-3.2519989V232.0889587z"/>
	<path class="tmm-ic-r" d="M264.3670044,34.7553482c5.9400024-3.5306015,19.7860107-9.7364025,37.1990051-4.2466011
		c1.0820007,0.3381004,1.8769836,1.2629986,2.04599,2.3867989c0.019989,0.1492004,2.6220093,15.5643997,15.3559875,23.142601
		c4.6090088-0.6066017,7.6280212-1.9890022,7.8970032-2.1183014c1.1920166-0.5569,2.632019-0.2784996,3.506012,0.7161026
		c4.9660034,5.6090965,6.4960022,11.3275986,6.8439941,15.405098c1.1319885-0.5370026,2.2440186-1.1138,3.3470154-1.7602997
		c2.7809753-1.6408997,5.164978-3.4310989,7.2009888-5.3207016c-3.1879883-5.5692978-7.3699951-10.1540985-12.5150146-13.6149979
		c-12.3169861-8.2943993-15.7339783-18.3192005-16.6380005-22.2873001
		c-15.29599-7.2700005-36.0859985-7.8568001-54.9079895-1.5713997c-0.0299988,2.9139996,0.1579895,6.0268002,0.6650085,9.2590981
		V34.7553482z"/>
	<path class="tmm-ic-r" d="M297.9299927,15.5709476c-10.5589905-11.78512-25.8249817-10.004921-30.9809875-8.9805603
		c-0.7149963,2.0089507-2.1350098,6.5240607-2.8399963,12.5011597
		C275.2430115,15.7101479,286.95401,14.5465479,297.9299927,15.5709476z"/>
	<path class="tmm-ic-r" d="M224.2180023,57.748745c-0.0789948,0.1492004-0.1690063,0.2884026-0.2680054,0.4177017
		c-16.9649963,34.1221962-3.2480011,75.7525177,30.7620087,93.0175171
		c7.2019958,3.6599884,14.8099976,5.9579926,22.4979858,6.9420013c0.1390076,0,0.2680054,0,0.4070129,0.019989
		c0.6659851,0.1000061,1.3209839,0.1690063,1.9670105,0.2490082c4.4599915,0.4169922,8.9399719,0.3880005,13.3799744-0.0700073
		c7.2700195-1.0139923,13.7369995-3.6989899,19.309021-8.0559998
		c16.9360046-13.2570038,20.9579773-38.1000061,21.5439758-42.5550079
		C327.927002,93.2632446,316.375,89.1558456,304.1579895,84.8097458C298.178009,82.6815491,292,80.4836502,286.6459961,76.9828491
		c-0.07901-0.0298004-0.1390076-0.0497055-0.1690063-0.0596008v-0.0398026
		c-22.3479919-14.7487984-27.8809814-33.9929008-28.5759888-47.5382996
		c-0.3179932-6.1660995,0.3080139-11.7055988,1.1419983-16.0714989
		c-9.2570038,8.6721992-25.0410004,25.1415977-34.8350067,44.4850998L224.2180023,57.748745z"/>
	<path class="tmm-ic-r" d="M289.2690125,71.5428467c4.1619873,1.2929001,23.7689819,6.7329025,42.0849915,0.8254013
		c0.0499878-2.5957031-0.4859924-7.2798996-4.1419983-12.1829033c-5.2940063,1.839901-19.2099915,5.1417046-33.7619934-4.2366982
		c-6.822998-4.3958015-14.4620056-4.7537994-21.2360229-1.0839996c3.8840027,5.8278999,9.3870239,11.5166016,17.0650024,16.6681976
		L289.2690125,71.5428467z"/>
	<path class="tmm-ic-r" d="M332.4169922,22.4829464c-1.4599915-1.1436996-2.8909912-2.4864006-4.3800049-4.107399
		c-3.1989746-3.4808998-13.8869934-13.4161701-28.6169739-9.6767597c2.4729919,2.1680603,4.7979736,4.8333597,6.8539734,8.1252594
		c5.8600159,1.1933994,11.3930054,3.0432987,16.348999,5.5792999c0.9040222,0.4575005,1.5100098,1.3425999,1.6090088,2.3570004
		c0.0500183,0.4277,1.3909912,10.9298992,14.3430176,19.6518002c5.4039917,3.6399994,9.8929749,8.3241997,13.4099731,13.9730988
		c7.9360046-10.3330994,7.7870178-21.9094009,7.0020142-26.5935993c-11.5710144,0.914999-21.493988-5.3008003-26.5700073-9.2888012
		V22.4829464z"/>
	<path class="tmm-ic-r" d="M309.1239929,55.8591461c-7.269989-7.2599983-10.0910034-16.270401-11.0149841-20.1491013
		c-16.5780029-4.4951992-29.1029968,2.9836006-32.3710022,5.221302c0.8339844,2.8941002,1.9559937,5.8378983,3.4559937,8.7915993
		c8.6919861-4.7737007,18.803009-4.3759003,27.4849854,1.2132988c4.3200073,2.7847023,8.5720215,4.2466011,12.4550171,4.9229012
		H309.1239929z"/>
	<path class="tmm-ic-r" d="M343.5809937,73.4224472c-10.0119934,5.8975983-21.0169983,7.6876984-30.6719971,7.6876984
		c-0.4970093,0-0.9840088,0-1.4700012-0.0098953c11.0350037,4.1769943,22.3690186,10.0147934,28.2189941,25.1416931
		c0.1690063,0.4370041,0.2279968,0.9050064,0.1889954,1.3720016c-0.1099854,1.064003-2.3539734,22.288002-15.2069702,38.6180038
		c24.8519897-13.3170013,38.4199829-35.4150009,40.3869934-65.8974991
		c0.7250061-11.2481003-0.3179932-21.9194031-1.7879944-30.5618019
		c-2.4240112,7.4390984-7.7980042,16.6880989-19.6380005,23.6598015L343.5809937,73.4224472z"/>
	<path d="M376.5390015,290.4179382c-0.2489929-0.79599-0.8250122-1.4620056-1.5799866-1.8099976
		c-1.3500061-0.6369934-33.5130005-15.2460022-76.085022,5.8680115
		C275.5409851,306.0419312,262.5,322.2329407,255.496994,334.4059448
		c-6.0789948-25.1620178-9.3669891-49.9850159-9.7839966-74.1820068
		c-0.2879944-16.5889893,0.8339996-31.3669891,2.5630035-44.0269775c1.6289978-1.5320129,10.8460083-9.4680023,27.3150024-9.1100006
		c1.4400024,0.019989,2.7019958-0.9750061,2.9899902-2.3970032s-0.4869995-2.8350067-1.8280029-3.3619995
		c-0.1689758-0.0690002-17.0939941-6.8619995-21.5139923-18.727005c2.9000092-10.1340027,5.8199921-17.4830017,7.6380157-21.6210022
		c5.3339844,1.7409973,10.7769775,2.8650055,16.2599792,3.3720093c0.0700073,0,0.1490173,0.0099945,0.2189941,0.019989
		c0.0390015,0,0.07901,0,0.1190186,0.0100098c2.3139954,0.2480011,4.5789795,0.3779907,6.7940063,0.3779907
		c2.7119751,0,5.3439941-0.1889954,7.8969727-0.5670013c13.3000183-1.4819946,26.2420044-6.5639954,37.4960022-15.1269989
		c29.5900269-18.0009918,37.9240112-46.2949982,39.3240051-68.5426025
		c1.480011-23.5900993-4.2609863-44.2264977-6.3670044-50.8499985c-0.1689758-0.7758007-0.3269958-1.3824005-0.46698-1.7504005
		c-0.9730225-2.6653004-3.1380005-2.4365997-3.5650024-2.3570004c-10.3999939,1.7901001-19.8070068-4.1074009-24.4850159-7.7772007
		c-1.2019958-0.9447994-2.3939819-2.0685987-3.664978-3.4509983c-4.1520081-4.5251102-18.9020081-18.1600494-39.1260071-9.8955507
		c-13.9349976-7.5086598-29.5200195-3.2421498-29.7290039-3.1725297l0.0799866,0.27846
		c-0.3179932,0.1094-0.6259766,0.26853-0.8939819,0.4873199c-1.1719971,0.93486-28.7960052,23.2719002-43.8440094,53.0181007
		l-0.0589905-0.0298004c-16.9260101,33.4359016-6.5360107,73.6442108,22.7559967,95.0762177
		c-2.2149963,4.9529877-5.7510071,14.1429901-9.2579956,26.5139923c-3.7740021,13.3269958-8.0250092,33.029007-9.6450043,57.7720032
		c-10.5980072-8.8009949-30.6419983-21.1329956-60.6589966-22.246994
		c-47.4700089-1.7600098-70.8118057,24.7929993-71.7853088,25.9269867
		c-0.5462952,0.6370087-0.7945938,1.4720001-0.6952972,2.3070068c0.0994034,0.8359985,0.5463028,1.5820007,1.2316971,2.0690002
		c1.2516022,0.8950043,31.0499039,21.8499756,69.2818985,23.2619934c1.3899994,0.0499878,2.7610016,0.0799866,4.1320038,0.0799866
		c24.8820038,0,46.3569946-8.1659851,57.8289948-13.5559845c-0.019989,2.3370056-0.019989,4.713974,0.0100098,7.1209869
		c0.1589966,12.2229919,1.0130005,24.5849915,2.5329895,37.0559998c-2.9199982,3.0130005-8.1349945,7.1799927-16.6380005,10.223999
		c-1.3009949,0.4670105-2.1149902,1.769989-1.9569855,3.1419983c0.1589966,1.3730164,1.2419891,2.4670105,2.6129913,2.6260071
		c0.1390076,0.019989,11.4819946,1.4320068,19.4680023,6.6829834c4.0330048,21.8700256,10.0720062,43.9980164,18.1080017,66.2260132
		c9.3369904,25.7980042,21.5339966,52.0830078,36.2449951,78.1099854c1.598999,2.8340149,4.3410034,4.8930054,7.5090027,5.65802
		c0.9039917,0.2189941,1.8280029,0.32901,2.7510071,0.32901c2.3049927,0,4.598999-0.677002,6.54599-1.9700012
		c5.1549988-3.4110107,6.8040161-10.3230286,3.7550049-15.7230225
		c-13.8959961-24.5849915-25.4179993-49.3580017-34.2590027-73.6349792
		c-2.7210083-7.4780273-5.1749878-14.927002-7.4190063-22.3670044c0.4960022,0,1.0030212,0,1.5390015,0
		c13.7770081,0,37.1990051-1.9890137,59.8059998-13.1970215c34.2780151-16.9959717,52.8630066-48.3639832,53.6270142-49.6859741
		c0.4279785-0.7260132,0.5169983-1.5920105,0.2689819-2.3970032L376.5390015,290.4179382z M160.2899933,259.7269287
		c-29.6989899-1.0939941-54.7099915-15.0169678-63.0632935-20.2189789
		c6.8833008-6.3349915,28.3283005-22.7549896,64.5933075-21.4120026
		c27.1859894,1.0050049,45.8699951,12.0340118,56.0409851,20.1490021
		c-35.022995-9.5370026-71.019989-6.3150024-72.7079926-6.1559906c-1.6389923,0.1589966-2.8410034,1.6109924-2.6920013,3.2519989
		c0.1490021,1.6409912,1.598999,2.8349915,3.2480011,2.6949921c0.427002-0.0390015,40.4470062-3.6299896,76.1450043,7.6080017
		c-10.677002,5.2420044-34.576004,15.0769958-61.5640106,14.0929871V259.7269287z M265.1319885,201.9249573
		c-6.8139954,1.2330017-11.9889832,3.6600037-15.5649872,5.8679962c1.0630035-6.276001,2.2649994-11.9149933,3.4669952-16.8670044
		C256.4110107,195.6199493,261.0299988,199.2899475,265.1319885,201.9249573z M363.2189941,49.7627449
		c1.4700012,8.6424026,2.5130005,19.3136024,1.7879944,30.5617027c-1.96698,30.4824982-15.5350037,52.5904999-40.3869934,65.8975067
		c12.8529968-16.3300018,15.1080017-37.5630112,15.2070007-38.6180115c0.0500183-0.4669952-0.019989-0.9349976-0.1889954-1.371994
		c-5.8500061-15.1169052-17.1839905-20.9646988-28.2189941-25.1417007c0.4869995,0,0.9729919,0.0098953,1.4700012,0.0098953
		c9.6549988,0,20.6600037-1.7901001,30.6730042-7.6875992c11.8499756-6.9716949,17.2129822-16.2306976,19.6369934-23.6597977
		L363.2189941,49.7627449z M293.4500122,55.9585457c14.552002,9.3783989,28.4779968,6.0765991,33.7619934,4.236702
		c3.6650085,4.9029961,4.1919861,9.5872002,4.1419983,12.1830025c-18.3160095,5.8974991-37.9330139,0.4673996-42.0849915-0.8255005
		c-7.678009-5.1516037-13.1809998-10.8403015-17.0650024-16.6682014c6.7739868-3.6697998,14.4129944-3.3218002,21.2359924,1.0839996
		L293.4500122,55.9585457z M269.1940002,49.7229462c-1.5-2.9437981-2.6220093-5.8875999-3.4559937-8.7915993
		c3.2579956-2.2476006,15.7929993-9.7264996,32.3710022-5.221302c0.9239807,3.8787003,3.7449951,12.8791008,11.0149841,20.1491013
		c-3.8829956-0.6662979-8.1349792-2.1381989-12.4549866-4.9229012c-8.6820068-5.5991974-18.78302-5.9869995-27.4850159-1.2132988
		H269.1940002z M328.0369873,18.3655472c1.4900208,1.6210995,2.9200134,2.9735985,4.3800049,4.107399
		c5.0760193,3.9880009,14.9989929,10.2137985,26.5700073,9.2889004c0.7950134,4.6841984,0.9440002,16.2703991-7.0020142,26.5935993
		c-3.5169983-5.6389999-8.0059814-10.3331985-13.4099731-13.9730988
		c-12.9520264-8.7220001-14.2929993-19.2242012-14.3430176-19.6518002c-0.098999-1.0044994-0.7049866-1.899601-1.6090088-2.3570995
		c-4.9559937-2.5360012-10.4889832-4.3858013-16.348999-5.5792007c-2.0559998-3.2918987-4.3809814-5.9572992-6.8539734-8.1253195
		c14.7299805-3.7394099,25.4179993,6.19592,28.6169739,9.6767187V18.3655472z M266.9500122,6.5903769
		c5.1549988-1.0243597,20.42099-2.8045697,30.9799805,8.9805708c-10.9759827-1.0243998-22.6869812,0.1392002-33.8209839,3.5205994
		C264.8139954,13.1144476,266.2340088,8.5993176,266.9500122,6.5903769z M318.6099854,27.0577469
		c0.9040222,3.9582005,4.3210144,13.9929008,16.6380005,22.2873001c5.1450195,3.4608994,9.3270264,8.0457001,12.5150146,13.6149979
		c-2.04599,1.8896027-4.4200134,3.6797028-7.2009888,5.3207016c-1.1029968,0.6464996-2.2150269,1.2232971-3.3470154,1.7602997
		c-0.3479919-4.0774994-1.8779907-9.7961006-6.8439941-15.405201c-0.8739929-0.9944992-2.3150024-1.2729988-3.506012-0.7159996
		c-0.2689819,0.1292992-3.2879944,1.5017014-7.8970032,2.1183014c-12.7339783-7.5783005-15.3359985-22.9934006-15.3559875-23.142601
		c-0.1690063-1.1238003-0.9639893-2.0486984-2.04599-2.3867989c-17.4129944-5.4898014-31.2490234,0.7159996-37.1990051,4.2466011
		c-0.5169983-3.2322025-0.6950073-6.3451023-0.6660156-9.2591019c18.822998-6.2952995,39.6230164-5.6985989,54.9089966,1.5713997
		V27.0577469z M223.9499969,58.1564484c0.098999-0.1292,0.1890106-0.2685013,0.2680054-0.4177017
		c9.7939911-19.3434982,25.5769958-35.8127975,34.8350067-44.4850998c-0.8340149,4.3659983-1.460022,9.9054995-1.1419983,16.0715981
		c0.6949768,13.5552998,6.2179871,32.7994003,28.5859985,47.5382996v0.0396957c0,0,0.0799866,0.0298996,0.1589966,0.0597
		c5.3540039,3.5007019,11.5319824,5.6986008,17.5119934,7.8269043c12.2170105,4.3460999,23.7690125,8.4534988,29.6589966,22.9040985
		c-0.5960083,4.4550018-4.6080017,29.2990036-21.5440063,42.5560074c-5.571991,4.3659973-12.0390015,7.0509949-19.3089905,8.0549927
		c-4.4400024,0.4580078-8.9200134,0.4880066-13.3800049,0.0700073c-0.6560059-0.0700073-1.3110046-0.1490021-1.96698-0.2489929
		c-0.1390076-0.0200043-0.2780151-0.0200043-0.4070129-0.0200043c-7.6879883-0.9840088-15.2869873-3.2920074-22.4980011-6.9410095
		c-34.0099945-17.2549896-47.7369995-58.8962021-30.7619934-93.0184021L223.9499969,58.1564484z M263.1149902,380.0939331
		c8.9500122,24.5849915,20.6210022,49.6570129,34.6759949,74.5299988c1.5200195,2.6849976,0.7050171,6.1159973-1.8569946,7.8070068
		c-1.3710022,0.9150085-3.0099792,1.2030029-4.618988,0.8150024c-1.5889893-0.3770142-2.9110107-1.3720093-3.7050171-2.7940063
		c-14.5519714-25.7380066-26.5999756-51.7149963-35.8279877-77.2049866
		c-7.2109985-19.9400024-12.7839966-39.7810059-16.727005-59.4230042c0.5660095-0.0700073,1.1320038-0.2879944,1.5990143-0.6960144
		c1.2519989-1.0740051,1.3909912-2.9639893,0.3179932-4.2070007c-1.0330048-1.2030029-2.2050018-2.2869873-3.4559937-3.2720032
		c-2.076004-1.6409912-4.3910065-3.0029907-6.7550049-4.1269836c-2.8310089-1.3529968-5.7210083-2.3670044-8.3139954-3.1230164
		c2.8409882-1.5809937,5.1849976-3.2419739,7.1019897-4.8239746c2.3840027-1.9690247,4.1130066-3.8180237,5.2949982-5.2700195
		c1.3700104-1.690979,2.0160065-2.8450012,2.0950012-2.9839783c0.7850037-1.4520264,0.2490082-3.2620239-1.2009888-4.0480042
		c-0.5570068-0.3080139-1.1730042-0.40802-1.7590027-0.3380127c-1.1520081-10.651001-1.8070068-21.2330017-1.9459991-31.6950073
		c-0.0500031-3.4219818-0.0299988-6.7729797,0.0289917-10.0549774c1.6390076-0.8849945,2.6230011-1.4720001,2.8310089-1.6009979
		c0.019989-0.0099945,0.0299988-0.0299988,0.0499878-0.0399933c0.1590118-0.1000061,0.3080139-0.2089996,0.4470062-0.3480072
		c0,0,0.0200043-0.0200043,0.0299988-0.0299988c0.1289978-0.1190033,0.2380066-0.2590027,0.3370056-0.397995
		c0.0299988-0.0400085,0.0599976-0.07901,0.0899963-0.1289978c0.0789948-0.1190033,0.1490021-0.2490082,0.2079926-0.3880005
		c0.0200043-0.0400085,0.0400085-0.0800018,0.0600128-0.1290131c0-0.019989,0.019989-0.0399933,0.0299988-0.0599976
		c0.0399933-0.098999,0.0589905-0.2089996,0.0789948-0.3079987c0.0200043-0.0699921,0.0500031-0.1289978,0.0599976-0.1990051
		c0-0.0099945,0-0.019989,0-0.0299988c0.0299988-0.1689911,0.0400085-0.3279877,0.0400085-0.496994
		c0-0.0399933,0-0.0700073,0-0.1100006c0-0.2079926-0.0400085-0.4069977-0.0800018-0.6060028
		c0-0.0299988-0.0200043-0.0599976-0.0299988-0.0999908c-0.0490112-0.1590118-0.098999-0.3180084-0.1690063-0.4670105
		c-0.0289917-0.0599976-0.0690002-0.118988-0.098999-0.1790009c-0.0690002-0.118988-0.1289978-0.2289886-0.2079926-0.3379974
		c-0.0100098-0.0200043-0.0200043-0.0399933-0.030014-0.0500031c-0.1889954-0.2489929-1.3009949-1.6209869-3.2979889-3.6499939
		c1.3209991-26.4839935,5.7809906-47.4389954,9.7139893-61.3220062c3.2680054-11.5669861,6.5860138-19.8809967,8.7110138-24.6749878
		c1.6889954,1.0349884,3.4269867,2.0289917,5.2249908,2.9440002c1.7279968,0.875,3.477005,1.6609955,5.2449951,2.3969879
		c-1.996994,4.5750122-5.1159973,12.5110016-8.1749878,23.5310059c-4.57901,16.4889984-9.9230042,43.3910065-9.3270111,77.8909912
		c0.4570007,26.7819824,4.3610077,54.3009949,11.6119995,82.1869812c-2.2549896,5.0820007-3.1389923,8.473999-3.2489929,8.9110107
		c0,0.0299988,0,0.0700073-0.0090027,0.1000061c-0.0299988,0.118988-0.0399933,0.2380066-0.0500031,0.3580017
		c0,0.0789795-0.019989,0.1589966-0.019989,0.2380066c0,0.1199951,0.0099945,0.2489929,0.0299988,0.367981
		c0,0.0800171,0.0099945,0.1499939,0.0299988,0.2290039c0.0289917,0.1390076,0.0690002,0.2789917,0.1190033,0.4079895
		c0.019989,0.0600281,0.0299988,0.1090088,0.048996,0.1690063c0.0800018,0.1889954,0.1689911,0.3580017,0.2890015,0.5270081
		c0.1089935,0.1690063,0.2480011,0.3280029,0.3970032,0.4670105c0,0,0.0789948,0.0699768,0.118988,0.0999756
		c0.1190033,0.098999,0.2380066,0.1990051,0.3680115,0.2780151c0.048996,0.0299988,0.1089935,0.0499878,0.1579895,0.0799866
		c0.1300049,0.0700073,0.2490082,0.1289978,0.378006,0.1790161c0.0690002,0.019989,0.1289978,0.0400085,0.1990051,0.0599976
		c0.1289978,0.0390015,0.2479858,0.0690002,0.3769989,0.0889893c0.0299988,0,0.0499878,0.0200195,0.0789948,0.0200195
		c0.2890015,0.039978,1.8179932,0.2189941,4.3309937,0.367981c2.423996,8.1849976,5.1259918,16.3999939,8.1250153,24.6340027
		L263.1149902,380.0939331z M319.9909973,337.1509399c-24.3850098,12.0929871-50.4289856,12.848999-62.1900024,12.4509888
		c28.5570068-27.0409851,64.9219971-37.1349792,65.2990112-37.2349854c1.5889893-0.428009,2.5229797-2.0690002,2.0960083-3.6600037
		c-0.427002-1.5910034-2.0559998-2.526001-3.6550293-2.0979919c-1.5299988,0.4169922-34.0009766,9.4079895-62.4679871,33.8139954
		c6.0889893-11.5670166,18.5639954-28.7520142,42.4429932-40.5870056
		c32.401001-16.0709839,58.7730103-9.9549866,67.6719971-7.0209961
		c-5.4919739,8.1849976-22.5869751,31.1480103-49.2070007,44.3460083L319.9909973,337.1509399z"/>
	<path class="tmm-ic-g" d="M297.7810059,454.6239319c-14.0549927-24.8630066-25.7160034-49.9450073-34.6750183-74.5299988
		c-3-8.2340088-5.6919861-16.4389954-8.1259918-24.6340027c-2.5130005-0.1489868-4.0419922-0.3280029-4.3300018-0.367981
		c-0.0299988,0-0.0499878-0.0100098-0.0799866-0.0200195c-0.1290131-0.019989-0.2580109-0.0499878-0.3770142-0.0889893
		c-0.0699921-0.019989-0.1389923-0.0299988-0.1989899-0.0599976c-0.1289978-0.0500183-0.2580109-0.1100159-0.3769989-0.1790161
		c-0.0500031-0.0299988-0.1100006-0.0499878-0.1590118-0.0799866c-0.1289978-0.07901-0.2489929-0.1790161-0.3679962-0.2780151
		c-0.0390015-0.0299988-0.0789948-0.0599976-0.1190033-0.0999756c-0.1489868-0.1490173-0.2779999-0.3080139-0.3969879-0.4670105
		c-0.1190033-0.1789856-0.2089996-0.3580017-0.2880096-0.5369873c-0.019989-0.0500183-0.0299988-0.1100159-0.0500031-0.1690063
		c-0.0499878-0.1390076-0.0889893-0.2690125-0.118988-0.40802c-0.0100098-0.0799866-0.0200043-0.1489868-0.0299988-0.2289734
		c-0.0100098-0.1190186-0.0299988-0.2480164-0.0299988-0.3680115c0-0.07901,0.0099945-0.1589966,0.019989-0.2380066
		c0.0100098-0.1199951,0.0200043-0.2389832,0.0500031-0.3580017c0-0.0299988,0-0.0700073,0.0099945-0.1000061
		c0.1090088-0.4369812,0.9930115-3.8389893,3.2480011-8.9109802c-7.2509918-27.8860168-11.1549988-55.4049988-11.6119995-82.1870117
		c-0.595993-34.4999847,4.7480011-61.4019775,9.3270111-77.891983c3.0599976-11.0189972,6.1779938-18.9550018,8.1749878-23.5299988
		c-1.7679901-0.7359924-3.5159912-1.5220032-5.2449951-2.3970032c-1.7969971-0.9149933-3.526001-1.9089966-5.223999-2.9440002
		c-2.1260071,4.7940063-5.4429932,13.1080017-8.7109985,24.6750031c-3.923996,13.8829956-8.3939972,34.8379974-9.7149963,61.3220062
		c2.0069885,2.0289917,3.1089935,3.401001,3.2979889,3.6499939c0.0100098,0.0200043,0.0200043,0.0400085,0.0299988,0.0500031
		c0.07901,0.1089935,0.1490021,0.2180023,0.2080078,0.3379974c0.0299988,0.0590057,0.0699921,0.1190033,0.1000061,0.1790009
		c0.0690002,0.1490021,0.118988,0.3079987,0.1689911,0.4669952c0,0.0299988,0.029007,0.0600128,0.029007,0.1000061
		c0.0500031,0.1990051,0.0800018,0.3970032,0.0800018,0.6060028c0,0.0399933,0,0.0699921,0,0.1100006
		c0,0.1689911,0,0.3280029-0.0400085,0.496994c0,0.0099945,0,0.0200043,0,0.0299988
		c-0.0099945,0.0690002-0.0399933,0.1289978-0.0599976,0.1990051c-0.029007,0.098999-0.0390015,0.2089996-0.0789948,0.3079987
		c0,0.0200043-0.0200043,0.0399933-0.0299988,0.0599976c-0.0200043,0.0390015-0.0400085,0.0890045-0.0590057,0.1289978
		c-0.0599976,0.1390076-0.1300049,0.2689972-0.2089996,0.3880005c-0.0299988,0.0400085-0.0599976,0.0890045-0.0890045,0.1289978
		c-0.0999908,0.1390076-0.2189941,0.279007-0.3379974,0.3980103c0,0-0.0200043,0.019989-0.0299988,0.0299988
		c-0.1390076,0.1289978-0.2879944,0.2379913-0.4470062,0.3479919c-0.019989,0.0100098-0.0299988,0.0299988-0.0499878,0.0400085
		c-0.2080078,0.1289978-1.1910095,0.7160034-2.8300018,1.6009979c-0.0599976,3.2819977-0.0700073,6.6329956-0.0299988,10.0539856
		c0.1389923,10.4629822,0.7939911,21.0449829,1.946991,31.6959839c0.5859985-0.0699768,1.2019958,0.0299988,1.7579956,0.3380127
		c1.4500122,0.7860107,1.9860077,2.5960083,1.2020111,4.0480042c-0.0700073,0.1289978-0.6760101,1.2030029-1.9369965,2.7850037
		c-0.0500031,0.0690002-0.1000061,0.1289978-0.1590118,0.197998c-0.1589966,0.1990051-0.3379974,0.4079895-0.5269928,0.6269836
		c-0.029007,0.0299988-0.0590057,0.0700073-0.0890045,0.098999c-0.1689911,0.1990051-0.3479919,0.3980103-0.526001,0.5970154
		l-0.0500031,0.0599976c-0.2089996,0.2290039-0.4169922,0.4570007-0.6459961,0.6960144v0.019989
		c-0.2579956,0.2479858-0.5059967,0.5069885-0.7749939,0.7659912c-0.7839966,0.7650146-1.6679993,1.5809937-2.6809998,2.4060059
		c-1.927002,1.5920105-4.2620087,3.2430115-7.102005,4.8240051c2.5919952,0.7559814,5.4830017,1.769989,8.3130035,3.1229858
		c1.1129913,0.5370178,2.2249908,1.1230164,3.2980042,1.7700195c0.5759888,0.3379822,1.1319885,0.7059937,1.6889954,1.0739746
		c0.0289917,0.0200195,0.0589905,0.0299988,0.0789948,0.0500183c0.576004,0.3880005,1.1329956,0.7949829,1.6790009,1.2330017
		c1.2510071,0.9849854,2.4230042,2.0690002,3.4560089,3.2720032c1.072998,1.2529907,0.9339905,3.1329956-0.3170013,4.2070007
		c-0.4670105,0.4079895-1.0230103,0.6259766-1.6000061,0.6959839c3.9440002,19.6419983,9.5160065,39.4930115,16.727005,59.4230042
		c9.2179871,25.4899902,21.2770081,51.4670105,35.8280029,77.2049866c0.8049927,1.4220276,2.1159973,2.4070129,3.7049866,2.7940063
		c1.6090088,0.3880005,3.2480164,0.1000061,4.6190186-0.8150024c2.5529785-1.690979,3.3669739-5.1219788,1.8569946-7.8069763
		L297.7810059,454.6239319z"/>
	<path class="tmm-ic-g" d="M369.197998,292.8049316c-8.9089966-2.9339905-35.2709961-9.0499878-67.6719971,7.0209961
		c-23.8789978,11.8450012-36.3540039,29.0200195-42.4429932,40.5870056
		c28.46698-24.4060059,60.9379883-33.3959961,62.46698-33.8139954c1.5900269-0.428009,3.2190247,0.5169983,3.6560059,2.0979919
		c0.427002,1.5920105-0.5069885,3.2330017-2.0960083,3.6600037c-0.3869934,0.1000061-36.7419739,10.20401-65.2989807,37.2350159
		c11.7609863,0.4079895,37.7949829-0.3580017,62.1900024-12.4510193
		c26.6199951-13.197998,43.7139893-36.17099,49.2070007-44.3459778L369.197998,292.8049316z"/>
</g>
<g class="tmm-icon-coin" id="coin3">
	<path d="M256.8580017,396.2449341l-3.8050079-21.75c-0.3569946-1.8299866-1.3309937-2.4369812-2.3539886-3.1229858
		c-0.3270111-0.2189941-28.7850037-19.4830017-28.7850037-19.4830017c-0.1589966-0.098999-0.3280029-0.1880188-0.5169983-0.2579956
		c-1.0330048-0.40802-2.2050018-0.1890259-3.0390015,0.5369873l-102.0800018,89.5769958
		c-1.0630035,0.9349976-1.3209991,2.4760132-0.6360016,3.7090149c0.6160049,1.0939941,15.4160004,26.9019775,47.0619965,41.2330017
		c0.1990051,0.0899963,0.3970032,0.1499939,0.5960083,0.1989746v0.0299988l35.0039978,13.0980225
		c0.3069916,0.1390076,0.625,0.2189941,0.9429932,0.2489929c1.0630035,0.07901,2.1260071-0.4979858,2.6520081-1.5220032
		l54.5219879-99.8099976c0.4470215-0.8160095,0.6060181-1.7609863,0.4370117-2.6759949V396.2449341z M179.1430054,450.3869324
		l-16.4690094,29.6970215c-23.2720032-11.3580017-36.5919952-29.4780273-40.5649948-35.5250244l95.8810043-84.1369934
		l1.8479919,16.57901L179.1430054,450.3869324z"/>
	<path class="tmm-ic-y" d="M162.6640015,480.0839539l57.1640015-103.0830078l-1.8470001-16.57901l-95.8820038,84.1369934
		C126.0719986,450.6059265,139.4019928,468.7259521,162.6640015,480.0839539z"/>
	<path d="M156.4960022,458.651947c-2.0559998-1.3630066-2.6220093-4.1380005-1.2510071-6.1960144
		c1.3600006-2.0690002,4.1320038-2.6260071,6.1880035-1.2630005c2.0559998,1.3619995,2.621994,4.1369934,1.2610016,6.1960144
		c-0.8639984,1.302002-2.2839966,2.0090027-3.7350006,2.0090027
		C158.1150055,459.3979492,157.2610016,459.1589355,156.4960022,458.651947z M142.1929932,445.7029419
		c-1.4109955-2.0289917-0.9039917-4.822998,1.1220093-6.2260132c2.026001-1.4119873,4.8179932-0.9049988,6.2180023,1.1240234
		c1.4109955,2.0289917,0.9039917,4.8239746-1.1220093,6.2259827c-0.7749939,0.5469971-1.6689911,0.8049927-2.5429993,0.8049927
		C144.447998,447.6319275,143.0570068,446.9559326,142.1929932,445.7029419z"/>
</g>
<g class="tmm-icon-coin" id="coin4">
	<path d="M268.8670044,499.7259521l-21.803009-58.9960022c-0.5859985-1.6210022-1.3710022-2.2270203-2.8710022-2.7149963
		c-1.2910004-0.4470215-21.1169891-7.5380249-21.1169891-7.5380249c-0.3079987-0.1099854-0.6360016-0.1689758-0.9830017-0.1689758
		c-1.2519989,0-2.4340057,0.8149719-2.8410034,2.0389709l-25.2590027,75.4640198
		c-0.2590027,0.7659912-0.1889954,1.6109924,0.178009,2.3269958c0.3679962,0.7160034,1.022995,1.2529907,1.7979889,1.4819946
		c0.2089996,0.0599976,1.5299988,0.4379883,3.7250061,0.776001c5.8999939,1.0540161,24.4550018,4.3259888,26.9380035,4.5050049
		c8.9589996,0.6370239,27.1169891-1.5410156,41.3899994-14.1719971c0.8450012-0.7460022,1.1719971-1.9290161,0.8349915-3.0029907
		H268.8670044z M200.7169952,506.4979248l21.2960052-63.618988l17.5709991,54.8869934
		C222.3009949,508.1089478,207.0149994,507.4129333,200.7169952,506.4979248z"/>
	<path class="tmm-ic-y" d="M200.727005,506.4979248c6.2969971,0.9150085,21.5839996,1.6110229,38.8669891-8.7319946
		l-17.5709991-54.8869934L200.727005,506.4979248z"/>
	<path d="M217.0269928,495.5289307c-1.2910004-2.1089783-0.6259918-4.8639832,1.480011-6.1560059
		c2.1060028-1.2929993,4.8569946-0.6269836,6.147995,1.4810181c1.2819977,2.1090088,0.6159973,4.8639832-1.4900055,6.1569824
		c-0.7249908,0.4470215-1.5289917,0.6560059-2.3239899,0.6560059
		C219.3410034,497.6669312,217.8710022,496.9009399,217.0269928,495.5289307z"/>
</g>
<g class="tmm-icon-coin" id="coin5">
	<path class="tmm-ic-y" d="M374.6619873,328.6669312l-40.9830017-16.3299866l-16.1609802-0.0890198l11.9889832,30.28302
		c0.1390076,0.3479919,0.2080078,0.7259827,0.2080078,1.0939941l0.0299988,27.0010071l33.3940125,57.2449951
		c46.5959778-30.7999878,59.0019836-77.4830017,61.4649963-89.2680054l-49.4160156-9.7669983
		c-0.1789856-0.0390015-0.3580017-0.0889893-0.526001-0.1589966V328.6669312z"/>
	<path d="M428.6470032,333.3119507l-52.0390015-10.2839966l-41.2510071-16.4390259
		c-0.3469849-0.1389771-0.7149963-0.2089844-1.0820007-0.2089844l-21.1380005-0.1190186h-0.0189819
		c-0.875,0-1.6790161,0.3970032-2.2450256,1.0540161c0,0-24.7329712,27.4089966-24.8320007,27.5379944
		c-0.5369873,0.7659912-0.6559753,1.7510071-0.3279724,2.6360168l7.7179871,27.2799988l0.0289917,27.2890015
		c0,0.5079956,0.1390076,0.9949951,0.3880005,1.4319763l33.1660156,56.559021
		c0.526001,0.9049988,1.4799805,1.4119873,2.4629822,1.4119873c0.4770203,0,0.9440002-0.1390076,1.4000244-0.3680115
		c21.9019775-11.0589905,29.4909973-14.927002,31.7259827-16.0709839c0.3970032-0.0599976,0.7850037-0.1990051,1.1319885-0.4179993
		c30.375-19.1640015,47.0420227-44.723999,55.684021-62.7940063c9.3670044-19.6019897,11.5319824-34.519989,11.6210022-35.1470032
		c0.2189941-1.5709839-0.8240051-3.0329895-2.3730164-3.3410034L428.6470032,333.3119507z M363.1390076,427.8709412
		l-8.552002-14.6589966l-24.8420105-42.5760193l-0.019989-17.6429749v-9.3480225
		c-0.0100098-0.3779907-0.07901-0.7460022-0.2180176-1.0939941l-11.9889832-30.2829895l16.1609802,0.0889893l40.9830017,16.3300171
		c0.1679993,0.0699768,0.3470154,0.1199951,0.526001,0.1589966l49.4160156,9.7669983
		c-2.4630127,11.7850037-14.8699951,58.4779968-61.4649963,89.2680054V427.8709412z"/>
	<path d="M402.7520142,352.4259338c-0.2880249,0-0.5860291-0.0289917-0.8740234-0.0889893
		c-0.2789917-0.0599976-0.5669861-0.1390076-0.8349915-0.2489929c-0.2680054-0.1190186-0.526001-0.2580261-0.7649841-0.4170227
		c-0.2480164-0.1589966-0.4760132-0.3479919-0.6850281-0.5569763c-0.2089844-0.2090149-0.3869934-0.4380188-0.5559998-0.677002
		c-0.1589966-0.2480164-0.2979736-0.507019-0.4079895-0.7750244c-0.1090088-0.2689819-0.197998-0.5469971-0.2579956-0.8359985
		c-0.0589905-0.2879944-0.0889893-0.5859985-0.0889893-0.875c0-0.2879944,0.0299988-0.5869751,0.0889893-0.875
		c0.0599976-0.2879944,0.1489868-0.5669861,0.2579956-0.8349915c0.1100159-0.2690125,0.2489929-0.5279846,0.4079895-0.776001
		c0.1690063-0.2389832,0.3470154-0.4679871,0.5559998-0.6759949c0.2090149-0.2090149,0.4370117-0.3980103,0.6850281-0.5570068
		c0.2389832-0.1600037,0.4969788-0.2989807,0.7649841-0.4179993c0.2680054-0.1090088,0.5559998-0.1889954,0.8349915-0.2489929
		c0.5760193-0.118988,1.1719971-0.118988,1.7480164,0c0.2879944,0.0599976,0.565979,0.1399841,0.8339844,0.2489929
		c0.2780151,0.1190186,0.5360107,0.2579956,0.7749939,0.4179993c0.2480164,0.1589966,0.4770203,0.3479919,0.6750183,0.5570068
		c0.2089844,0.2080078,0.3980103,0.4370117,0.5660095,0.6759949c0.1589966,0.2480164,0.2979736,0.5069885,0.4079895,0.776001
		c0.1090088,0.2680054,0.197998,0.5469971,0.2579956,0.8349915c0.0499878,0.2880249,0.07901,0.5870056,0.07901,0.875
		c0,0.2890015-0.0290222,0.5870056-0.07901,0.875c-0.0599976,0.2890015-0.1489868,0.5670166-0.2579956,0.8359985
		c-0.1100159,0.2680054-0.2489929,0.5270081-0.4079895,0.7750244c-0.1679993,0.2389832-0.3570251,0.4679871-0.5660095,0.677002
		c-0.197998,0.2089844-0.427002,0.3979797-0.6750183,0.5569763c-0.2389832,0.1589966-0.4969788,0.2980042-0.7749939,0.4170227
		c-0.2680054,0.1099854-0.54599,0.1889954-0.8339844,0.2489929S403.0499878,352.4259338,402.7520142,352.4259338z"/>
	<path d="M374.105011,395.3399353c-1.7780151-1.730011-1.8070068-4.5549927-0.0890198-6.3349915
		c1.7180176-1.7700195,4.5490112-1.8000183,6.3170166-0.07901c1.7779846,1.7200012,1.8079834,4.5540161,0.0899963,6.3250122
		c-0.8739929,0.9049988-2.0370178,1.3619995-3.1990051,1.3619995
		C376.0920105,396.6129456,374.9700012,396.1859436,374.105011,395.3399353z M385.5679932,382.5509338
		c-2.026001-1.4129944-2.5329895-4.196991-1.1229858-6.2259827c1.401001-2.0390015,4.1919861-2.5360107,6.2179871-1.1340027
		c2.0270081,1.4119873,2.53302,4.196991,1.1230164,6.2359924c-0.8640137,1.2529907-2.2550049,1.9190063-3.6750183,1.9190063
		C387.2369995,383.3459473,386.3429871,383.0879517,385.5679932,382.5509338z M394.8049927,368.0599365
		c-2.223999-1.0740051-3.1579895-3.7389832-2.0950012-5.9670105c1.0620117-2.2369995,3.7340088-3.1719971,5.9590149-2.1080017
		c2.2250061,1.0740051,3.1690063,3.7490234,2.0960083,5.9770203c-0.7650146,1.6009827-2.3640137,2.5359802-4.03302,2.5359802
		C396.0870056,368.4979248,395.4309998,368.3589478,394.8049927,368.0599365z"/>
	<path d="M364.2420044,407.8409424c-0.2980042,0-0.5859985-0.0289917-0.8739929-0.0889893
		c-0.2880249-0.0600281-0.5660095-0.1490173-0.8340149-0.2590027c-0.2789917-0.1090088-0.5369873-0.2480164-0.7749939-0.4070129
		c-0.2489929-0.1600037-0.4769897-0.3479919-0.6759949-0.5570068c-0.2080078-0.2089844-0.3970032-0.4379883-0.5559998-0.677002
		c-0.1690063-0.2479858-0.3080139-0.5069885-0.4170227-0.7749939c-0.1089783-0.2689819-0.1989746-0.5570068-0.2579956-0.8359985
		c-0.0499878-0.2879944-0.0799866-0.5870056-0.0799866-0.875c0-1.1829834,0.4769897-2.3370056,1.3110046-3.1619873
		c0.1990051-0.2090149,0.427002-0.3980103,0.6759949-0.5570068c0.2380066-0.1700134,0.4960022-0.3089905,0.7749939-0.4179993
		c0.2680054-0.1100159,0.54599-0.1990051,0.8340149-0.2590027c1.4499817-0.2879944,2.9899902,0.1889954,4.0329895,1.2340088
		c0.8339844,0.8249817,1.3110046,1.9790039,1.3110046,3.1619873c0,0.2879944-0.0299988,0.5870056-0.0899963,0.875
		c-0.059021,0.2789917-0.1490173,0.5670166-0.2579956,0.8359985c-0.1090088,0.2680054-0.2480164,0.5270081-0.4070129,0.7749939
		c-0.1690063,0.2390137-0.3479919,0.4680176-0.5559998,0.677002c-0.2090149,0.2090149-0.4370117,0.3970032-0.6860046,0.5570068
		c-0.2380066,0.1589966-0.4960022,0.2980042-0.7649841,0.4070129c-0.2680054,0.1099854-0.5559998,0.1989746-0.8340149,0.2590027
		C364.8280029,407.8119507,364.5299988,407.8409424,364.2420044,407.8409424z"/>
</g>
</svg>
